# xmcd
#
# Track frame offsets: 
#        150
#        31300
#        42187
#        62512
#
# Disc length: 1104 seconds
#
# Revision: 1
# Processed by: cddbd v1.5.2PL0 Copyright (c) Steve Scherf et al.
# Submitted via: ExactAudioCopy v1.0b3
#
DISCID=29044e04
DTITLE=Deep Jam - When Boys Talk
DYEAR=1991
DGENRE=Dance
TTITLE0=When Boys Talk (12" Club Mix)
TTITLE1=Talking Beats
TTITLE2=Swing Talk
TTITLE3=When Boys Talk (7" Radio Mix)
EXTD=
EXTT0=
EXTT1=
EXTT2=
EXTT3=
PLAYORDER=
